<?xml version="1.0" standalone="no"?>
<!DOCTYPE svg PUBLIC "-//W3C//DTD SVG 20010904//EN"
 "http://www.w3.org/TR/2001/REC-SVG-20010904/DTD/svg10.dtd">
<svg version="1.0" xmlns="http://www.w3.org/2000/svg"
 width="222.000000pt" height="222.000000pt" viewBox="0 0 222.000000 222.000000"
 preserveAspectRatio="xMidYMid meet">
<metadata>
Created by potrace 1.11, written by Peter Selinger 2001-2013
</metadata>
<g transform="translate(0.000000,222.000000) scale(0.100000,-0.100000)"
fill="#000000" stroke="none">
<path d="M1020 1702 c-8 -2 -21 -10 -29 -16 -8 -6 -22 -12 -33 -12 -10 -1 -25
-2 -33 -3 -8 0 -23 -10 -32 -20 -9 -11 -20 -18 -25 -15 -4 3 -8 1 -8 -5 0 -9
-82 -52 -127 -65 -12 -4 -25 -15 -28 -26 -3 -10 -16 -25 -29 -34 -14 -8 -30
-32 -36 -53 -7 -21 -24 -57 -37 -81 -19 -31 -24 -51 -19 -75 3 -17 2 -37 -2
-42 -4 -6 -41 -30 -82 -54 -256 -150 -424 -307 -423 -396 1 -43 4 -53 20 -72
58 -66 217 -91 442 -69 41 5 84 10 95 12 67 13 144 26 161 27 25 0 78 -25 124
-58 24 -18 46 -25 70 -24 20 1 46 -1 58 -5 12 -4 31 -2 42 4 14 7 34 7 67 0
41 -9 52 -8 92 12 25 12 57 23 70 24 14 2 37 14 51 27 27 25 108 67 130 67 16
0 111 97 111 114 0 7 14 38 30 69 17 31 30 63 30 71 0 7 42 37 93 66 276 157
447 319 447 424 0 23 -7 52 -16 64 -18 26 -71 55 -84 47 -6 -3 -10 -1 -10 6 0
6 -8 9 -20 6 -10 -3 -21 0 -22 5 -4 10 -228 14 -283 5 -16 -3 -55 -8 -85 -12
-30 -3 -90 -13 -133 -21 -76 -15 -79 -15 -93 4 -7 10 -28 25 -46 33 -18 7 -50
26 -71 43 -38 30 -39 30 -175 32 -75 1 -144 -1 -152 -4z m818 -155 c68 -37 64
-92 -13 -176 -38 -42 -150 -131 -164 -131 -3 0 -7 17 -7 39 -1 21 -9 52 -18
69 -9 17 -16 40 -16 52 0 30 -35 93 -70 126 -30 29 -30 29 -8 35 13 4 77 6
143 5 94 -1 127 -5 153 -19z m-1242 -465 c-1 -35 5 -71 15 -92 9 -19 19 -52
23 -72 7 -36 6 -38 -21 -39 -67 -3 -151 3 -185 12 -138 36 -94 158 104 292
l41 27 13 -35 c6 -19 11 -61 10 -93z"/>
</g>
</svg>
